<?xml version="1.0"?>
<svg xmlns="http://www.w3.org/2000/svg" xmlns:xlink="http://www.w3.org/1999/xlink" xmlns:svgjs="http://svgjs.com/svgjs" version="1.1" width="512" height="512" x="0" y="0" viewBox="0 0 32 32" style="enable-background:new 0 0 512 512" xml:space="preserve" class=""><circle r="16" cx="16" cy="16" fill="#bac8d3" shape="circle" transform="matrix(0,0,0,0,16,16)"/><g transform="matrix(0.7,0,0,0.7,4.800000000000001,4.800000000000001)"><g xmlns="http://www.w3.org/2000/svg" id="BG"><path d="m26 32h-20c-3.314 0-6-2.686-6-6v-20c0-3.314 2.686-6 6-6h20c3.314 0 6 2.686 6 6v20c0 3.314-2.686 6-6 6z" fill="#eeecef" data-original="#f5e6fe" style="" class=""/></g><g xmlns="http://www.w3.org/2000/svg" id="Layer_3"><path d="m8.733 12h2.533c.406 0 .734-.328.734-.733v-2.534c0-.405-.328-.733-.733-.733h-2.534c-.405 0-.733.328-.733.733v2.533c0 .406.328.734.733.734z" fill="#305cfb" data-original="#be63f9" style="" class=""/><path d="m8.733 18h2.533c.406 0 .734-.328.734-.733v-2.533c0-.406-.328-.734-.733-.734h-2.534c-.405 0-.733.328-.733.733v2.533c0 .406.328.734.733.734z" fill="#e6e8ef" data-original="#d9a4fc" style="" class=""/><path d="m8.733 24h2.533c.406 0 .734-.328.734-.733v-2.533c0-.406-.328-.734-.733-.734h-2.534c-.405 0-.733.328-.733.733v2.533c0 .406.328.734.733.734z" fill="#305cfb" data-original="#be63f9" style="" class=""/><path d="m14.733 12h2.533c.406 0 .734-.328.734-.733v-2.534c0-.405-.328-.733-.733-.733h-2.533c-.406 0-.734.328-.734.733v2.533c0 .406.328.734.733.734z" fill="#e6e8ef" data-original="#d9a4fc" style="" class=""/><path d="m14 17.267c0 .405.328.733.733.733h2.533c.406 0 .734-.328.734-.733v-2.533c0-.406-.328-.734-.733-.734h-2.533c-.406 0-.734.328-.734.733z" fill="#305cfb" data-original="#be63f9" style="" class=""/><path d="m14 23.267c0 .405.328.733.733.733h2.533c.406 0 .734-.328.734-.733v-2.533c0-.406-.328-.734-.733-.734h-2.533c-.406 0-.734.328-.734.733z" fill="#e6e8ef" data-original="#d9a4fc" style="" class=""/><path d="m23.267 8h-2.533c-.406 0-.734.328-.734.733v2.533c0 .406.328.734.733.734h2.533c.406 0 .734-.328.734-.733v-2.534c0-.405-.328-.733-.733-.733z" fill="#305cfb" data-original="#be63f9" style="" class=""/><path d="m23.267 14h-2.533c-.406 0-.734.328-.734.733v2.533c0 .406.328.734.733.734h2.533c.406 0 .734-.328.734-.733v-2.533c0-.406-.328-.734-.733-.734z" fill="#e6e8ef" data-original="#d9a4fc" style="" class=""/><path d="m23.267 20h-2.533c-.406 0-.734.328-.734.733v2.533c0 .406.328.734.733.734h2.533c.406 0 .734-.328.734-.733v-2.533c0-.406-.328-.734-.733-.734z" fill="#305cfb" data-original="#be63f9" style="" class=""/></g></g></svg>
